# xmcd CD database file
# Generated: Sam Feb 22 11:32:36 2003 by KSCD
# 
# Track frame offsets:
#       150
#       16930
#       35145
#       52832
#       73837
#       95010
#       120855
#       146605
#       167622
#       188680
#       207335
#       228832
#       248115
#       250005
#       276430
#
# Disc length: 3741 seconds
#
# Revision: 4
# Processed by: cddbd v1.5.2PL0 Copyright (c) Steve Scherf et al.
# Submitted via: Kscd 1.3.3
#
DISCID=cc0e9b0f
DTITLE=Popa Chubby - Booty And The Beast
DYEAR=1995
DGENRE=Blues
TTITLE0=Palace Of The King
TTITLE1=Lookin' Back
TTITLE2=Healing In Her Hands
TTITLE3=Sweet Goddess Of Love And Beer
TTITLE4=Stoop Down Baby
TTITLE5=Trouble
TTITLE6=Same Old Blues
TTITLE7=Anything You Want Me To Do
TTITLE8=Low Down And Dirty
TTITLE9=Waitin' For The Light
TTITLE10=Angel On My Shoulder
TTITLE11=You Rub Me The Wrong Way
TTITLE12=Secret Chubby
TTITLE13=Sweat
TTITLE14=Chubby's Goodnight
EXTD=
EXTT0=
EXTT1=
EXTT2=
EXTT3=
EXTT4=
EXTT5=
EXTT6=
EXTT7=
EXTT8=
EXTT9=
EXTT10=
EXTT11=
EXTT12=
EXTT13=
EXTT14=
PLAYORDER=
